<svg color="#a3a3a3" xmlns="http://www.w3.org/2000/svg" viewBox="51 113 869 778"><path fill="#F7E14C" d="M617.3 281q-.3-16 14.5-22l105.4-43q14.8-6 29.6 0l102.4 41q14.8 6 17.5 21.8l21.6 127.4q2.7 15.8-12.4 21.1l-87.8 30.4q-15.1 5.3-28.9-2.8l-146.4-85.8Q619 361 618.7 345ZM256.9 350.7q-2.9-15.7 9.9-25.3l89.4-66.8q12.8-9.6 28.5-6.4l109.6 22.6q15.7 3.2 17.6 19.1l8.2 71.2q1.9 15.9-10.4 26.1l-113.4 94.6Q384 496 368 495.8l-69-.6q-16-.2-18.9-15.9ZM172.5 713.6q-3.5-15.6 5.6-28.7l66.8-95.8q9.1-13.1 24.9-10.5l67.4 10.8q15.8 2.6 21.7 17.5l56.2 142.2q5.9 14.9-4.4 27.1l-78.4 92.6q-10.3 12.2-25.8 8.3l-88-22.2q-15.5-3.9-19-19.5Z"></path><path fill="#453F3D" d="M404.8 199.3q-15.8-2.3-2-10.3l93.4-54q13.8-8 29.8-8.1l135-.8q16-.1 28.8 9.5l23.4 17.8q12.8 9.6-2.2 15.2l-129 48.8q-15 5.6-30.8 3.3ZM78.5 491.8Q81 476 91.7 464.1l82.6-92.2q10.7-11.9 12.5 4l15.4 139.2q1.8 15.9-7.1 29.2l-55.2 82.4q-8.9 13.3-23.7 7.2l-41.4-16.8Q60 611 62.5 595.2ZM420.8 575.5q-6.8-14.5 5.5-24.7l135.4-111.6q12.3-10.2 26.7-3.1l152.2 74.8q14.4 7.1 11.2 22.8l-36.6 179.6Q712 729 696 730l-181 12q-16 1-22.8-13.5Z"></path></svg>
