<svg color="#a3a3a3" xmlns="http://www.w3.org/2000/svg" viewBox="196 67 1116 1364"><path fill="#C7A116" d="M387.7 75.7c-1.1 1-.7 797.1.4 802.8.5 2.7 1.6 9.9 2.4 16 2.2 16.4 3.2 22 4.3 24.1.5 1.1 1.2 4.3 1.5 7.1.6 5.1 3.1 13.8 8.4 28.8 1.4 3.8 2.9 8.7 3.4 10.8s1.3 4.5 1.8 5.5c2.1 4.4 4 8.9 4.7 11.2.4 1.4 1.8 4.2 3 6.2 1.3 2.1 2.4 4.2 2.4 4.8 0 1.9 16.8 33.9 19.4 36.9.7.9 1.6 2.3 2 3.1.8 1.9 3 5.4 8.5 13.2 2.4 3.5 5.8 8.3 7.5 10.8s3.3 4.7 3.6 5 2.9 3.4 5.8 7c14.1 17.6 41.1 44.8 54.6 55.1 2.8 2.1 6.7 5.2 8.6 6.8 1.9 1.7 4 3.1 4.5 3.1.6 0 2.1 1 3.5 2.3 3 2.7 20 14.3 25 17 1.9 1.1 4.2 2.5 5.1 3.3.8.8 2.1 1.4 2.8 1.4s2.6 1 4.3 2.1c4.9 3.5 25.1 13.6 36.1 17.9 5.6 2.2 11.6 4.7 13.2 5.5 2.6 1.3 11.4 4 35.9 11.4 3.8 1.2 7.8 2.1 8.9 2.1 1.2 0 3.4.4 5.1.9 12.2 3.6 26.2 5.7 54.1 8.1 12.7 1.1 38.9 1.1 52.5 0 16.7-1.4 31.1-3 36-4.1 7.9-1.8 18.3-4 23.9-5 2.9-.5 6.1-1.4 7-1.8.9-.5 4.3-1.4 7.6-2.1 3.3-.6 7.8-2 10-2.9 2.2-1 6.7-2.6 10-3.5 3.3-1 7.4-2.4 9-3.2 1.7-.7 5.6-2.3 8.7-3.4 3.2-1.2 6-2.6 6.3-3.1.4-.5 1.3-.9 2.1-.9 1.3 0 7.3-2.6 11.4-4.9.8-.5 3.5-1.8 6-3s6.3-3.2 8.5-4.4c4.7-2.7 14.5-8.2 19.4-10.8 1.8-1 4.1-2.5 5-3.2.9-.8 6.8-4.9 13.1-9.1s14.3-10 17.8-12.9c19.8-16.3 44.3-40.4 55.8-54.8 3.2-4.1 6.4-7.9 7-8.4.7-.6 2.4-2.8 3.8-5s4.6-6.7 7.1-10 4.8-6.7 5.2-7.5 1.9-3.3 3.5-5.4c1.5-2.1 2.8-4.3 2.8-4.7s2-3.7 4.5-7.3c2.5-3.7 4.5-7.1 4.5-7.6 0-.6 1-2.7 2.3-4.8 3.5-5.8 15.7-31.4 15.7-33 0-.6 1.4-4 3-7.5 1.7-3.6 3-7.4 3-8.5s1.1-4.4 2.4-7.3c1.3-3 2.7-7 3.1-8.9s1.8-6.7 3-10.6c1.3-4 2.6-9.4 3-12 .3-2.7 1.2-6.7 2-8.9.7-2.2 2-9.2 2.9-15.5s2.1-14.9 2.8-19c1-5.9 1.3-92.7 1.3-406.5v-399l-366.6-.3c-201.6-.1-366.9.1-367.2.5M1112 380.3c1.3.7 3 2.3 3.7 3.7 1.1 2 1.2 48.2 1 239.5-.4 234.5-.6 251.2-3.7 267.5-.6 3-1.5 8.4-2 12-1.4 9.9-1.8 12.1-3.6 18-.8 3-2.2 8.4-2.9 12s-2.2 8.5-3.3 11-2.3 6.5-2.7 9-1.8 6.3-3.1 8.6c-1.3 2.2-2.4 4.9-2.4 6 0 1-1.3 4.4-2.9 7.5-1.5 3.1-3.1 6.9-3.5 8.4-.4 1.6-1.5 4-2.5 5.4s-2.4 4.3-3.1 6.4c-.6 2.1-2.7 6.4-4.6 9.5-1.8 3.1-4 7.1-4.8 8.7-.8 1.7-3.1 5.5-5 8.4-2 2.9-3.6 5.7-3.6 6.1 0 1.1-10.5 16.8-13.4 20-1.2 1.4-3.5 4.5-5.1 7-7.8 12.3-27.8 34.2-48.5 53.2-5.2 4.8-10.6 9.7-12 10.8-7.5 6.2-12.6 10-13.4 10-.5 0-2.9 1.7-5.5 3.7-6.5 5.5-19.7 14.3-25.6 17.3-5 2.5-8.8 4.7-14 7.9-5.3 3.3-19.1 10.1-20.4 10.1-.5 0-3.1 1.1-5.7 2.5s-5.3 2.5-6.1 2.5c-.7 0-3.9 1.4-7 3-3.1 1.7-6.4 3-7.4 3-.9 0-4.6 1.3-8.1 3-3.4 1.6-7.6 3-9.1 3s-4.8.9-7.2 2-7.6 2.5-11.7 3.1c-4 .6-8.9 1.7-10.8 2.5-4.8 1.8-12.7 3.3-24 4.4-5.2.5-11.3 1.5-13.5 2.2-5.7 1.8-74.3 1.8-80 0-2.2-.7-8.3-1.7-13.5-2.2-12.5-1.2-20.9-2.8-24-4.4-1.4-.7-5.6-1.6-9.5-2-4-.4-9.3-1.8-12.4-3.1-2.9-1.4-6.5-2.5-8-2.5-1.4 0-4.8-1.2-7.6-2.5-2.7-1.4-5.6-2.5-6.3-2.5-.8 0-2.8-.6-4.5-1.4-1.8-.7-5.2-2.1-7.7-3.1-5.8-2.4-13-5.4-15.5-6.5-1.1-.5-3.6-1.6-5.5-2.4s-4.6-2.1-6-2.9-4.1-2.2-6-3.1-5.7-2.9-8.5-4.6c-2.7-1.6-6.8-3.9-9-5-2.2-1.2-5.6-3.2-7.5-4.5-1.9-1.4-4.8-3.4-6.5-4.5-1.6-1.1-4.6-3.2-6.5-4.5s-6.4-4.4-10-6.8c-7.9-5.4-10.5-7.4-14.2-10.9-1.6-1.5-3.5-3.1-4.3-3.5-1.8-1.1-23.8-21.8-28.4-26.7-2-2.2-4.7-5.1-6.1-6.6-16-17.3-21.5-24.7-42.6-56.5-8.3-12.5-25.9-48.6-29-59.2-.9-3.2-2.2-6.7-2.9-7.8-.6-1.1-1.5-3.8-1.9-6s-1.9-6.6-3.2-9.9c-1.3-3.2-2.7-8.2-3-11-.4-2.8-1-5.6-1.4-6.1-1.8-2.6-4-12.1-4.6-19.9-.4-4.8-1.1-8.9-1.6-9.2-.4-.3-.8-2-.8-3.9s-.4-4.5-1-6c-.5-1.4-1.3-7-1.7-12.3-.3-5.3-.8-117.8-1-250l-.3-240.3 2.9-3 2.9-2.9 118.7.1c65.3 0 119-.3 119.4-.6.3-.4 107-.4 237.1 0 175.3.5 237.1 1 239 1.8"></path><path fill="#C7A116" d="M279.7 325.7c-.4.3-.7 6.8-.7 14.4 0 13.7 0 13.8-2.6 15.8-3.2 2.5-3.8 2.5-8.9.1-2.2-1.1-4.3-1.9-4.7-2-.6 0-6.3-2.5-18.3-8-15.9-7.3-19.4-8.1-19.6-4.2-.5 12.5-.9 20.1-1.4 26.8-.9 11-1.6 10.3 27 25.1 2.2 1.1 5.6 2.8 7.5 3.8 20.5 10.6 21.4 11.6 21.4 24.3.1 7.2-.2 8.6-1.8 9.8-3 2.1-5.7 1.7-14.2-2.2-4.4-2-9.8-4.5-12.1-5.5-2.4-1.1-6.2-2.8-8.5-3.8-6.6-2.9-14-6.1-14.4-6.1-.1 0-1 .7-1.8 1.6-1.3 1.3-1.6 4.5-1.6 19.8 0 20.9-.4 20 10 25 3 1.5 6.2 3 7 3.5.8.4 2.6 1.4 4 2.1 1.4.8 7 3.7 12.5 6.5 16 8.2 19.5 10.7 21.6 15.5 3.5 7.8 2.2 18.9-2.5 22.2-1.9 1.4-6.6.8-11.9-1.3-9.3-3.7-12.2-5-26.2-12.2-7.8-4-10.2-4.9-12-4.6-1.9.4-2 1.5-2.5 17.8-.3 10.5-.1 18.3.5 19.7 1.5 3.3 4.7 5.6 17.5 12.3.8.4 3.3 1.7 5.5 2.9 5.1 2.6 10.9 5.5 21 10.2 10.8 5.1 12.8 7.4 13.3 15.4.4 5.5.1 6.7-1.7 8.5-3.2 3.2-10.3 2.5-17.8-1.7-1.2-.7-2.7-1.2-3.3-1.2-1 0-8-3.1-19.5-8.5-7.7-3.7-10.6-4.6-12.6-4-1.8.6-1.9 1.9-1.9 18.1 0 18.8.8 22.5 5.3 24.5 1.2.5 3.6 1.8 5.2 2.8 5.1 3.2 16.9 9.1 18.3 9.1.6 0 3.5 1.1 6.3 2.5 2.8 1.3 7.5 3.1 10.5 4 2.9.8 6.6 2.6 8.1 3.9 2.6 2.3 2.8 3 3.1 11.9.5 11.3-.5 13.7-5.1 13.7-2.8 0-11-2.9-21.4-7.6-1.7-.8-3.8-1.4-4.6-1.4s-2-.7-2.7-1.5-1.7-1.5-2.3-1.5c-.5 0-3.9-1.4-7.5-3.1-10.9-5.1-10.7-5.5-11 16l-.2 18.5 3.2 3.3c1.8 1.9 6.7 5 10.8 7s8.2 4 9.1 4.4 7.3 3 14.3 5.8c14.5 5.8 16.9 7.2 18.4 10.7 1.9 4 1.5 18.1-.5 21.5-1.5 2.5-2.4 2.9-6 2.9-2.3 0-4.4-.4-4.7-.9-.3-.4-3.6-1.8-7.3-3-3.7-1.3-9.5-3.6-12.9-5.2-3.3-1.6-6.3-2.9-6.7-2.9-.3 0-3.5-1.4-7.2-3.1-10.4-4.8-10-5.5-10.3 17-.2 17.2 0 19.6 1.5 21.3 1.7 2 17.6 9.8 19.8 9.8.7 0 1.8.6 2.4 1.4.6.7 2.5 1.6 4.1 2 1.7.3 5.4 1.7 8.4 3.1 2.9 1.4 5.8 2.5 6.3 2.5 2.5 0 10.4 4.3 12.2 6.7 3 3.7 3 14.3 0 18.4-1.8 2.6-2.5 2.9-5.7 2.4-2.1-.4-4.6-1-5.7-1.4-8.8-3.5-13.2-5.1-14.3-5.1-.7 0-3.9-1.4-7.2-3-3.3-1.7-6.6-3-7.5-3-.8 0-3.3-1.1-5.5-2.5-8.4-5.3-9-4-9 18 0 14 .3 18.5 1.4 20.1.8 1.1 5 3.7 9.3 5.8s8.6 4.2 9.6 4.7c.9.5 4.3 1.9 7.5 3 3.1 1.1 7.1 2.7 8.7 3.4 1.7.7 5.6 2.1 8.8 3.1s7.3 3.1 9 4.5c3.2 2.7 3.2 2.8 3.4 12.7.2 9.3.1 10.1-2.2 12.2-2.8 2.6-6.1 2.4-16-1-3.3-1.2-7.1-2.4-8.5-2.6-1.4-.3-3.4-.9-4.5-1.4-15.7-6.8-24.4-8.4-25.8-4.8-.2.7 0 3.8.6 6.8.5 3 1.1 10.4 1.2 16.3.3 10.8.3 10.9 3.6 14.3 1.8 1.9 4.2 3.7 5.3 4 1.2.3 4.8 1.9 8.2 3.5 3.3 1.6 7.2 2.9 8.5 2.9 1.4 0 3.3.6 4.4 1.4 1.1.7 4.7 2.1 8 3 6.3 1.9 12.3 4.1 16.4 6 4.4 2 5.4 5 5.9 16.8.3 9.8.2 11.1-1.5 12.3-2.5 2-4.4 1.8-12.9-1-4.1-1.4-8.1-2.5-8.9-2.5-.9 0-2.3-.4-3.3-1-3.4-2-23.4-8-24.4-7.4-1.5 1-.1 24.4 2 32.8 1.4 5.8 2.2 7.2 5.2 9.2 1.9 1.3 4 2.4 4.7 2.4.8 0 2.1.4 3.1 1 4 2.2 11.4 5 17.9 6.9 3.9 1 8 2.4 9.1 3s3.1 1.1 4.4 1.1c3.2 0 12.1 3.5 13 5.1 3.7 7 5.6 16.3 3.7 18.5-1.7 2.1-11 1.7-16.9-.6-2.8-1.1-6-2-7.1-2s-5.4-1.3-9.6-3c-7.2-2.9-12.7-3.8-13.6-2.2-.3.4-.1 3.8.4 7.7.6 3.8 1.3 9.7 1.8 13 1.1 8.2 3.1 16.7 4.3 18.2.6.7 2.4 1.7 4.2 2.2 1.7.5 5.6 1.9 8.6 3.1s7.8 2.6 10.5 3.1c6.3 1 14.5 3.3 17.1 4.7 1.1.6 2.6 1 3.4 1 .8-.1 2.9 0 4.7 0 5.4.3 13.3 8.6 13.3 14 0 1.1.7 2.5 1.5 3.2 2 1.6 1.9 7.4 0 9-1.8 1.5-28.6.6-31.7-1.1-1-.5-4.6-.9-8.1-.7-5.9.3-6.2.4-6.5 3-.2 1.4.6 4.7 1.7 7.2 1.2 2.4 2.7 6.9 3.6 9.8 3.6 13.3 6.5 18.8 10 18.8 1.2 0 4.2.7 6.6 1.5 4.8 1.7 20.4 3.4 38 4.1 10.9.5 11.7.7 14.3 3.2 3.8 3.6 12.6 16.1 12.6 17.8 0 .8-1.9 2.6-4.2 4-4 2.6-4.4 2.6-23.7 2.8l-19.6.1-.3 2.6c-.2 1.4 1.1 5.3 2.8 8.6 1.6 3.4 3 7 3 8 .1 1 1.6 4.5 3.4 7.8 3.2 5.8 3.4 6 8.2 6.6 6.9.9 21.3 1.2 25.4.6 1.9-.3 10.8-.9 19.7-1.2l16.1-.6 7.7 7.4c6.5 6.2 7.6 7.8 7.3 10.2-.2 2.3-1.1 3-5.3 4.5-7.5 2.6-14 3.9-24.3 5-5.2.5-9.9 1.3-10.5 1.9-.7.5-2.8 1.1-4.7 1.3-3 .3-3.5.7-3.8 3.1-.2 1.8.7 4.5 2.7 7.6 1.7 2.6 3.1 5.5 3.1 6.3 0 .9.7 2.1 1.5 2.8s1.5 1.9 1.5 2.7c0 2.2 6.3 8.1 9.4 8.9 1.5.3 3.7.2 4.9-.4 1.2-.5 6.9-1.5 12.7-2.1 10.5-1 14.1-1.7 25.5-4.4 6.3-1.6 10.8-3 16.3-5.3 6.9-2.9 10.7-2 21.6 5.3 11.1 7.5 11.6 7.9 11.6 10.9 0 2-3.7 6.4-5.4 6.4-.5 0-2.5 1.3-4.5 2.9-2 1.5-5.4 3.8-7.6 5s-5.4 3-7.1 4c-1.7 1.1-6.8 3.8-11.3 6.2-4.4 2.4-8.4 5.1-8.7 6.1-.6 2 2.8 6.9 6.1 8.7 1.1.6 4.7 3.4 8 6.2s7.5 5.7 9.4 6.5c3.1 1.3 3.8 1.3 6.7-.1 1.8-.8 3.9-1.5 4.7-1.5.9 0 3.6-1.1 6-2.4 2.5-1.3 5.8-2.7 7.3-3 1.6-.4 3.6-1.4 4.4-2.1s4-2.6 7-4.3c9.7-5.2 12.5-6.9 18.6-11.1 7.4-5.1 9.8-5.2 19.1-.4 6.4 3.2 7.3 4 7.9 7 .4 2 .2 3.9-.6 4.8-.6.8-6.7 5.5-13.3 10.4-6.7 5-13.6 10.2-15.3 11.6-1.8 1.4-3.6 2.5-4.1 2.5-1.9 0-6.3 4.6-6.3 6.5.1 1.9 7.7 8.5 9.8 8.5.5 0 1.7.9 2.7 1.9 3.3 3.7 13.6 9.2 15.9 8.5 3.1-1 21.5-10.6 26.1-13.7 2.2-1.5 6.7-4.7 10-7.2 3.3-2.4 7.6-5.5 9.5-6.9s4.6-3.4 6-4.5c3.7-3 9.3-2.7 16.4.9 3.2 1.7 6.4 3 7.1 3 .6 0 2.2 1.1 3.4 2.4 4.2 4.4 2.9 6.2-16.8 23.6-4 3.6-9.4 8-12 9.8-6.1 4.3-8.3 7.2-6.9 9 .6.7 7.1 4.2 14.4 7.7 12.5 5.9 13.6 6.3 17.1 5.3 4.3-1.2 13.6-6.2 15.3-8.3.7-.8 1.7-1.5 2.3-1.5 1.4 0 16.1-11.3 22.9-17.7 3.1-2.9 6.8-5.7 8.1-6.2 3.6-1.4 9.2-.2 15.5 3.1 3 1.5 6 2.8 6.7 2.8s3.7 1.3 6.8 3c3.1 1.6 6.5 3 7.6 3s2.2.4 2.5.9c.3.4 3.4 1.9 6.8 3.1 3.5 1.3 7.2 2.9 8.3 3.7 1.1.7 2.7 1.3 3.7 1.3.9 0 5.4 1.7 10 3.9 4.6 2.1 9.3 4.2 10.6 4.6s4.8 2.1 7.8 3.8c7 4 6.9 6.1-.2 9.7-2.8 1.4-5.8 3-6.5 3.6-.8.6-2.7 1.4-4.4 1.8-1.6.4-5.2 1.8-8 3-2.7 1.3-8.4 3.7-12.5 5.5s-8.8 3.8-10.5 4.6c-16.4 7.6-23 10.5-23.9 10.5-1.5.1-5.6 3.6-5.6 4.8 0 .5.9 1.7 2 2.7 2.5 2.2 5.8 1.6 14.8-2.6 3.7-1.8 9-4.2 11.7-5.4 14.1-6.2 20.6-9.1 26.1-11.7 3.4-1.5 6.5-2.8 6.9-2.8s3.6-1.3 7.2-3c3.5-1.6 6.8-3 7.3-3 .4 0 3.7-1.4 7.1-3.2 8.8-4.4 15.8-4.4 25.1 0 3.6 1.8 7.2 3.2 8 3.2.7.1 3.8 1.4 6.8 3 3 1.7 6.2 3 7 3 .9 0 2 .4 2.5.9.6.5 3.5 1.9 6.5 3.1 3 1.3 8.2 3.5 11.5 5.1 5.3 2.5 11.5 5.3 23.5 10.6 1.9.9 4.7 2.2 6.2 3 6.9 3.5 13.3-.4 8.7-5.3-1.2-1.3-2.7-2.4-3.3-2.4s-3.8-1.4-7-3c-3.2-1.7-6.3-3-6.8-3s-3.6-1.3-7-3c-3.3-1.6-6.4-3-6.8-3-.5 0-4.6-1.7-9.2-3.8s-11-4.9-14.3-6.2c-16-6.2-22.1-10.4-19.5-13.5 1.7-2 8.9-6 13.5-7.5 2.2-.7 7-2.8 10.7-4.7 3.6-1.8 7.1-3.3 7.6-3.3.6 0 2.3-.6 3.9-1.4 1.5-.8 8-3.6 14.3-6.1 17-7 17-6.9 24-10.3 7.9-3.7 14-4.8 17.2-3.1 1.3.7 4.8 3.6 7.8 6.4 5.7 5.4 21.3 17.5 22.5 17.5.4 0 1.9.9 3.3 2.1 5.1 3.9 9.7 6.5 13.8 7.7 3.8 1.1 4.6 1 10.5-1.9 14.2-6.7 21.1-10.5 21.7-11.8.6-1.5-3.2-5.2-14.3-14.1-10.6-8.4-23.5-21.6-23.5-24.1 0-1.9 3.5-5.8 5.3-5.9.4 0 3.8-1.4 7.4-3.1 9.4-4.4 12.1-4.1 19.6 1.7 3.4 2.7 6.7 5.4 7.2 6 2 2.3 23.4 15.8 29.5 18.6 14.4 6.5 15 6.6 18.5 2.8 1-1.1 2.3-2 2.9-2 .7 0 2.7-1.3 4.6-3 1.9-1.6 3.9-2.9 4.4-3 1.9 0 9.6-7.2 9.6-8.9 0-1.4-4.9-6.1-6.4-6.1-2 0-33.4-24.2-34.2-26.3-1.1-3.4 3.5-8.3 10.3-11.1 3.5-1.4 7.2-2.6 8.3-2.6 2.2 0 10 4 14.6 7.5 1.8 1.4 3.6 2.5 3.9 2.5s2.1 1.1 3.9 2.5 3.6 2.5 4.1 2.5c.4 0 3 1.3 5.6 3 2.7 1.6 6.1 3.2 7.6 3.6 1.6.4 3.5 1.2 4.3 1.9s4.9 2.5 9.1 3.9l7.7 2.7 4.8-2.6c2.6-1.4 5.6-3.3 6.5-4.3.9-.9 4.5-4 7.9-6.7 6.5-5.3 8.3-7.5 7.2-9.1-1.1-1.5-8-6.4-9.1-6.4-.6 0-3.3-1.3-6.1-3-2.8-1.6-5.5-3-6-3s-2.5-1.3-4.3-3c-1.9-1.6-3.8-3-4.2-3s-3.3-1.6-6.5-3.6c-8.9-5.5-10.1-11.4-3.1-15.6 2-1.2 6.2-4.2 9.5-6.5 6.4-4.7 10.7-5.5 16.8-2.9 10.7 4.4 23.8 7.4 43.8 10.1 5.8.8 11.9 1.7 13.6 2.1 1.9.3 3.4.2 3.8-.5.4-.6 1.5-1.1 2.5-1.1 1.8 0 9.1-10 9.1-12.5 0-.7.7-1.8 1.5-2.5s1.5-2 1.5-3 .7-2.3 1.6-3c1-.9 1.4-2.6 1.2-4.9-.3-3.4-.6-3.6-4.3-4.1-2.2-.3-4.7-1-5.5-1.5s-3.5-1-6-1.1c-13.1-.7-29.6-5.4-31.2-9-1.1-2.5-1.2-2.3 6.2-10.6 7-7.8 7.2-7.9 27.1-6.8 33.5 1.8 42.9 1.2 47.1-3.1 1.5-1.5 2.8-3.7 2.8-4.8s.4-2.3 1-2.6c.5-.3 1.4-2.4 2-4.7.7-2.2 2.3-6.5 3.6-9.5 4.2-9.1 4.8-8.8-17.7-9-17.8-.1-20-.3-23.8-2.2-5-2.6-5.2-4.4-.9-10.8 4.3-6.3 4.8-7 8.4-10.9l3.2-3.4h10.3c5.6 0 12.8-.4 15.8-1 3.1-.5 9.2-1.4 13.6-1.9 19.2-2.3 21.8-3.7 23.6-11.9.4-2 1.6-6.2 2.7-9.2 5.1-14.3 6.1-18.4 5-19.7-1.3-1.6-11.4-1.8-15.3-.3-1.4.5-8.4 1.3-15.6 1.7-11.6.5-13.1.4-14.9-1.2-2.6-2.3-2.6-6.5 0-9.8 1.1-1.4 2-3 2-3.6 0-.7.9-3 2.1-5.2 2.2-4.5 5.4-6.3 14-7.8 3-.5 8.1-1.7 11.4-2.6s7.8-2 10-2.4c5.2-1 14.7-4.2 16-5.2.5-.5 1.6-.9 2.6-.9.9 0 2.8-.9 4.2-2 1.9-1.6 2.6-3.2 3-7.2.3-2.9 1.3-9.1 2.2-13.8 2.6-13.7 2.9-17.1 1.4-18.1-2-1.3-8.3-1.1-9.7.3s-7.2 3.6-12.7 4.9c-2.2.4-5.8 1.5-8 2.3-4.9 1.8-14.6 2.1-16.3.4-1.9-1.9-1.4-8.4.9-13.3 2.8-6 6.8-9.2 12.7-10.1 2.6-.3 5.5-1.1 6.5-1.6.9-.5 6.1-2.1 11.5-3.7 5.3-1.5 11.7-3.7 14.2-4.9 2.5-1.1 5.4-2.3 6.6-2.6 1.1-.4 3.5-2.1 5.3-4 3.1-3.2 3.2-3.7 3.6-13 .2-5.3.7-10.1 1-10.6 1.4-2.2 2.4-13.3 1.4-15.2-1.2-2.2-3.7-2.3-6.3-.3-1.1.8-2.9 1.5-4 1.5-2.4 0-12.6 3.7-14 5.1-.6.5-2.3.9-3.8.9s-6.1 1.1-10.2 2.5c-9 3-11.7 3.1-14 .6-1.4-1.6-1.7-3.1-1.3-7.8 1-10.9 2.5-17.7 4.4-19.1 2.5-1.9 11.3-5.9 14.3-6.5 1.4-.3 5-1.5 8-2.7s7.5-2.6 10-3.1c2.4-.5 4.9-1.4 5.4-1.9.6-.6 1.8-1 2.7-1s2.2-.6 2.8-1.4c.6-.7 2.4-1.6 3.9-1.9s4.4-2.2 6.5-4.3l3.7-3.8-.2-17.5-.3-17.6-3.5.1c-4.1.2-6.9 1-20.5 5.9-11.8 4.3-23 7.5-26.1 7.5-1.2 0-3.1-1.1-4.2-2.5-1.7-2.2-1.9-3.6-1.4-11.7.2-5.1.8-10 1.3-10.9.9-1.8 10.6-6.7 15.1-7.6 1.8-.3 5.9-1.9 9-3.4 3.2-1.6 6.4-2.9 7.3-2.9 1.4 0 7.9-3 18.5-8.5 3.7-1.9 4.8-3.2 6.2-7.2 3.4-9.1 1.8-35.8-2.1-37.1-.6-.2-3.7.8-6.7 2.2s-5.8 2.6-6.3 2.6-3 1.2-5.6 2.7c-2.6 1.4-6.4 3-8.4 3.4s-6.3 1.9-9.6 3.3-7.9 2.6-10.2 2.6c-3.5 0-4.5-.5-6.2-2.9-3.1-4.3-2.9-12.4.5-16.8 2.8-3.7 9.1-7.3 12.7-7.3 1.2 0 2.7-.4 3.3-.9.5-.5 3.4-1.9 6.4-3.1 7.2-2.8 19.1-8 21-9.1.8-.5 3.4-1.8 5.8-3 5.2-2.6 8-8 6.1-11.6-.7-1.3-.9-3.3-.4-5 .4-1.5 1-7.2 1.2-12.6.3-7.9.1-10.3-1.2-12.3-2-3.1-3.8-3-10.5.6-3 1.6-6.2 2.9-7 3-.8 0-4.2 1.4-7.5 3s-6.6 3-7.2 3c-.7 0-4.2 1.3-7.6 3-3.8 1.8-8 3-10.4 3-5.9 0-7.3-2.6-7.3-13.6 0-7.8.3-9.1 2.6-12.1 2.6-3.5 9-7.3 12.1-7.3 1 0 2.7-.6 3.8-1.4 1.1-.7 3.3-1.6 4.9-2 2.9-.7 14.1-5.6 18.1-7.8 1.1-.6 4-2.2 6.5-3.4 9.2-4.7 9-4 9-25.4 0-17.3-.2-19-1.8-19.9-1.4-.7-2.7-.5-5.1 1-1.7 1-3.6 1.9-4.1 1.9-.6 0-4.1 1.4-7.8 3.1-24.3 11.2-31.6 13.5-34.7 10.9-1.1-.9-1.5-3.6-1.5-11 0-9.6.1-9.9 3-12.8 1.6-1.7 4.7-3.6 6.7-4.2 8.6-2.7 28.1-11.3 39.6-17.6 7-3.9 7.7-6.2 7.7-26V565l-2.5-1.2c-2.1-.9-3.5-.6-9.7 2.4-11.9 5.6-21.1 9.7-23.8 10.4-1.4.4-4.7 1.7-7.4 3-6.3 3.1-8.1 3-11.1-.2-2.1-2.2-2.5-3.7-2.5-8.6 0-5.5.3-6.1 4.1-10.3 2.3-2.5 4.6-4.5 5.2-4.5s4.3-1.6 8.4-3.5 8-3.5 8.8-3.5 1.7-.5 2-1.1c.4-.6 4.1-2.6 8.3-4.6 9.3-4.4 18.8-10.7 20.2-13.2 1.1-2.1 1.4-28.8.4-33.9-1.1-5.4-3.3-5-19.7 3.1-8.4 4.1-17.7 8.3-20.7 9.3s-5.9 2.2-6.4 2.6c-1.7 1.4-5.2.8-7.4-1.2-2-1.9-2.2-3.1-2.2-11.6 0-12.8 1.1-14.5 13.5-21 3.3-1.7 11-5.7 17-8.9 6.1-3.1 12.2-6.6 13.7-7.6 1.4-1.1 3.2-1.9 4-1.9s3.1-1.6 5.2-3.5l3.8-3.5-.7-17.2c-.6-14.6-1-17.6-2.5-19.2-2-2-2.3-1.9-15.5 4.5-3.3 1.6-6.4 2.9-7 2.9-.5 0-3.7 1.4-6.9 3-3.2 1.7-6.4 3-7.1 3s-1.8.6-2.4 1.4c-1.7 2-8.5 3-11 1.6-1.9-1-2.1-2-2.1-11.3 0-13.2-1.4-11.7 22.5-24.2 5-2.6 12.6-6.6 17-8.8 4.4-2.3 9.7-5.4 11.9-7.1l3.8-2.9-.7-17.6c-.6-15.2-.9-17.9-2.5-19.5-1.9-1.9-2-1.9-6.2-.1-7.4 3.1-17.1 7.5-23.3 10.6-3.3 1.6-6.4 2.9-7 2.9-.5.1-2.8.9-5 2-5.1 2.5-6 2.5-8.5 0-1.8-1.8-2-3.3-2-15.3 0-14.1-.5-15.7-4.7-15.7-3.5 0-4.3 3-4.3 16.8 0 10.8-.3 13.2-1.7 14.3-2.2 1.9-9.9 1.6-12.1-.4-1-1-2.5-1.7-3.3-1.7s-3.4-1.4-5.9-3-5.3-3-6.2-3-1.9-.4-2.3-.9c-.5-.9-5.5-3.5-10.5-5.6-.8-.3-2.6-1.2-4-2s-4-1.5-5.7-1.5c-2.6 0-3.4.5-3.7 2.2-1 4.8-1.4 31-.5 34.1.7 2.5 2.6 4.2 8.4 7.9 4.1 2.7 7.9 4.8 8.4 4.8s1.4.7 2.1 1.5 1.9 1.5 2.8 1.5c.8 0 2.9 1.1 4.6 2.4s5.4 3.5 8.1 5c15.3 8.3 19.5 11.6 19.5 15.2 0 1.2.6 3.6 1.3 5.4 1.2 2.7 1.2 3.9-.1 7.8-.8 2.6-1.7 5.3-1.9 6.1-.5 2.1-9.5.9-12.8-1.7-1.4-1.1-4.3-2.6-6.3-3.3-2-.6-3.9-1.5-4.2-1.8-.3-.4-4.3-2.5-9-4.8-19.9-9.6-19.7-9.5-20.4-6.1-1 4.7-1.4 32.1-.5 35.1.6 2.2 2.4 4.2 5.7 6.4 2.6 1.8 5.1 3.3 5.6 3.3.4 0 2.5 1.3 4.6 3 2.1 1.6 4.4 3 5 3 .7 0 2.8 1.1 4.6 2.5s3.6 2.5 3.9 2.5c.4 0 6 3.2 12.6 7.1l11.9 7.2v10.9c0 10.2-.2 11.1-2.2 12.9-1.3 1-3.1 1.8-4.1 1.9-1.8 0-19.1-8.6-28.2-14-2.7-1.7-5.7-3.3-6.5-3.7-.8-.3-3-1.7-4.7-3.1-6.8-5-8.2-1.6-8.4 20.4l-.1 16.6 2.8 2.5c1.6 1.3 4 3.1 5.4 4.1 1.4.9 5.1 3.6 8.4 5.9 3.2 2.4 6.2 4.3 6.6 4.3s3.1 1.6 6 3.5 8.9 5.4 13.4 7.6c6.8 3.5 8.4 4.7 10 8.1 1.6 3.3 1.7 5 1 10.1-.8 5.7-1.1 6.2-4.1 7-3.3 1-7.4-.6-17.4-6.5-2.5-1.6-5.2-2.8-5.9-2.8s-2.9-1.4-5-3c-2.1-1.7-4.1-3-4.5-3s-2.7-1.4-5.2-3c-4.8-3.3-8.4-3.8-10.2-1.6-.8.9-1.3 7.5-1.4 19.6-.2 18-.2 18.2 2.1 19.9 1.3.9 3.8 2.7 5.5 4.1 1.8 1.4 4.9 3.4 7 4.5 2 1.1 3.7 2.2 3.7 2.6 0 .5 3.4 2.4 12 6.8.8.4 3.3 1.7 5.5 3 2.2 1.2 6.3 3.3 9.2 4.6 6.2 2.9 8.5 6.6 8.7 13.9.2 5.4-2 12.2-4.7 14.4-1.3 1.1-2.6.7-8.4-2.3-3.7-2-7.5-4-8.3-4.4-3.3-1.7-16.4-9.3-23.5-13.6-4.5-2.7-7-3.1-8.2-1.3-.4.7-1.1 6.7-1.5 13.3s-.9 14.3-1.2 17.1c-.5 4.7-.3 5.5 2.5 8.7 4 4.7 18.5 14 34.9 22.6 7.2 3.7 13.8 7.8 14.6 9 1.9 2.6 3 13.2 2 18.5-.4 2.2-1.6 4.2-3.1 5.2-2.3 1.5-2.7 1.4-7.2-.7-2.6-1.3-12.2-6.8-21.2-12.2s-17.1-9.7-18-9.5c-2.1.4-2.8 5.6-3.2 23.8-.3 16.1-.1 17 6 21 2 1.4 5.9 4.1 8.6 6.1 5.3 3.9 11 7.2 24.4 14.1 10.9 5.6 12.7 7.3 13.5 13.2 1.2 7.9-1.3 14.6-5.5 14.6-2.3 0-10.5-4.3-26.9-14-.8-.5-4.8-3-8.9-5.5-4-2.5-7.9-4.4-8.6-4.1-1.9.7-2.7 6.6-2.4 17.9.1 6.5-.3 11.5-1.1 13.8-1.2 3.3-1.1 4 .9 7.3 1.3 2 3.5 4.3 4.9 5 1.5.8 3.6 2.3 4.6 3.5 1.1 1.2 2.2 2.1 2.6 2.1s3.4 1.8 6.6 3.9c3.3 2.1 8.6 5.3 11.9 7.1s6.7 3.7 7.5 4.4c.8.6 3.5 2.1 6 3.4 7.1 3.6 8.5 6.2 8.4 15.9-.1 14.4-3.7 16.4-15.8 8.8-4-2.5-7.6-4.5-8.1-4.5-.4 0-2.6-1.4-4.9-3-12.8-9.5-19.6-14-21-14-1.6 0-3.3 6-2.2 7.9.3.5.1 2.2-.5 3.8-.6 1.5-1.3 6.4-1.6 10.7-.2 4.4-.8 8.7-1.3 9.6-1.5 2.8 1.2 9 5.5 12.3 2.2 1.7 4.4 3.7 4.8 4.4s1.3 1.3 1.8 1.3c.6 0 3.6 1.9 6.7 4.2 3.2 2.4 6.6 4.8 7.7 5.5 23.9 14.5 26 16.5 25.1 24.1-1.4 12.6-2.3 16.2-4.2 17.7-1 .8-2.4 1.5-3.1 1.5-1.5 0-8.6-3.3-14.8-6.9-2.7-1.7-6.7-3.9-8.8-5.1-2.1-1.1-4.4-2.5-5-3-7.1-6-15.4-11.1-17.7-10.8-2.4.3-2.5.7-3.3 8.8-.4 4.7-1 13.1-1.3 18.6l-.5 10.2 4.3 4.5c6.3 6.6 18.1 15.2 32.5 23.5 9.5 5.6 11.7 8.4 10.9 14.1-1 7-3.8 13.9-6.4 15.2-1.9 1.1-2.9 1-6-.6-2-1.1-5.3-3.2-7.3-4.7s-3.9-2.8-4.3-2.8c-.6 0-18.7-13.7-23.6-17.9-1.9-1.7-4-3.1-4.6-3.1-1.3 0-7.1 14-8 19.4-.4 2.2-1.3 5.1-2 6.5-1.9 3.6-1.7 9.1.4 12.2 2.4 3.6 9.1 10.2 19.2 18.8 4.7 4 9.7 8.3 11.2 9.7 1.4 1.3 3.1 2.4 3.6 2.4s2.4 1.3 4.1 2.9c2.6 2.4 3.1 3.7 3.1 7.3 0 4.6-5.3 16.3-8.2 18.1-3.1 2-7.7-1.5-24.3-18.4-9.1-9.3-16.9-16.9-17.4-16.9-1.8 0-5.1 4.8-5.1 7.5 0 3-6.1 16.8-7.9 18-1.6.9-1.4 10.2.2 11.2 2.5 1.6 7.7 9.1 7.7 11.3 0 2.6 6.8 11.5 14.5 19 3.1 3 6.5 7.2 7.6 9.2l1.9 3.7-3.4 5.8c-5.2 8.8-10.3 14.3-13.3 14.3s-10.2-7.4-10.3-10.6c0-1.2-1.4-4-3-6.3-1.7-2.3-4-5.9-5.1-7.9-4.4-7.9-10.6-15.7-12.4-15.7-1.7 0-4.5 3.2-18.5 20.9-1.6 2.1-3 4.4-3 5.1 0 1.5 14.7 30.4 16.6 32.6.8.8 1.4 2.2 1.4 3s1.2 2.5 2.6 3.8c3.5 3.4 6.6 9.8 5.9 12.2-.4 1.1-3.1 4.6-6.2 7.9-4.9 5.3-5.9 6-9.4 6-3.7 0-4-.3-7.9-7.1-2.3-3.8-6.2-11.8-8.7-17.7s-4.9-11.2-5.3-11.7c-.4-.6-1-2.2-1.4-3.8-1.2-5-4.7-3.4-16 7.3-3.2 3-6.9 6.5-8.2 7.7-3.4 3.2-3.2 10.6.6 22.3 1.7 5.1 3.3 11.7 3.6 14.8.7 6.1 2.9 13.9 4.5 15.9 2 2.3-2.4 7.4-12 13.8-7.5 5-10.8 4.6-13.7-1.5-1.2-2.4-2.5-6.4-2.8-8.8s-1.4-6.6-2.3-9.2c-1.5-4.2-1.5-5.3-.3-9 1.2-3.6 1.2-4.8-.1-8.3-1.8-5.4-4.4-5.8-10.9-1.8-2.8 1.7-5.5 3.1-6.2 3.1-1.4 0-10.4 5.6-13.5 8.4-2.3 1.9-2.3 2.4-2.3 23.7 0 13.4.4 22 1 22.4 1.6 1 1.2 6-.7 9.3-1.1 2-4.3 4.4-8.8 6.8-6.7 3.5-7.3 3.6-9.9 2.2-1.8-.9-3.4-3-4.3-5.4-1.7-4.6-3.5-22.7-3.3-33.1.1-6.8-.1-7.3-2.2-7.8-2-.5-13.5 2.8-18.6 5.4-.9.5-3.8 1.8-6.4 3-4.5 1.9-4.8 2.3-4.8 5.9 0 2.1-.4 4.2-.9 4.7-.6.6-1.3 5.7-1.7 11.5s-1 10.9-1.4 11.5c-1 1.3-.8 14.1.3 15.1 1.2 1.3.8 8.9-.8 11-1.6 2.3-17.4 10.4-20.3 10.4-2.6 0-5.8-3.9-6.7-8-.4-1.9-1-11.1-1.2-20.5-.2-10-.8-17.4-1.5-18.2-1.2-1.5-6.4-1.7-7.3-.3-.6 1-9.1 5-10.7 5-2 0-9.5 4-12.1 6.4-1.8 1.7-2.7 3.5-2.7 5.5 0 4.3-1.9 16.9-3.2 21.1-.6 1.9-1 8.3-.9 14.2l.2 10.7-3.5 3.9c-2.2 2.4-5.5 4.6-8.3 5.6-2.7 1-7.7 3-11.3 4.6-10.5 4.6-30.3 12.7-33 13.5-1.4.4-4.1 1.6-6 2.6s-6 2.8-9 4c-3 1.1-5.9 2.4-6.5 2.8-.5.5-2.3 1.1-3.9 1.5s-5.8 2-9.2 3.7c-3.5 1.6-6.9 2.9-7.7 2.9-.7 0-1.8.5-2.3 1-1.1 1.1-8.6-1.2-16-4.8-2.2-1.2-5.4-2.4-7-2.8s-3.3-1-3.9-1.4c-.5-.4-5-2.4-10-4.4-4.9-2.1-10.5-4.4-12.3-5.2s-3.9-1.4-4.6-1.4c-.8 0-1.9-.7-2.6-1.5s-2.1-1.5-3.1-1.5c-1.1 0-2.7-.4-3.7-.9-3.8-2.1-10.9-5.1-11.9-5.1-.5 0-3.4-1.3-6.4-3-3-1.6-6.1-3-7-3-2.7 0-9.6-3.8-12.8-7.1-3.1-3-3.1-3.1-3.1-13.7 0-5.9-.5-12.5-1.1-14.7s-1.6-8.1-2.3-13c-.7-5-1.8-10.1-2.3-11.6-1.2-2.8-7.7-7.5-12-8.5-1.5-.4-5.6-2-9-3.6-7.6-3.5-11.1-3.6-12.2-.6-.5 1.3-.6 2.7-.4 3.1.3.5.5 5.4.4 11 0 5.6-.1 13.4-.1 17.4-.1 5.7-.5 7.8-2.3 10.4-2.7 4.1-4.7 4.6-9.2 2.5-1.8-.9-4-1.6-4.9-1.6-2.3 0-9.1-4.5-11-7.2-1.3-1.8-1.6-5.1-1.7-15.8 0-13.6-.7-21.4-2.9-34.8l-1.2-7.2-7.3-3.5c-4-1.9-7.9-3.5-8.7-3.5s-2.8-.6-4.4-1.4-4.1-1.8-5.6-2.1c-4.2-1.1-5.8 3.1-5.9 15.2-.1 16.9-2.9 28.9-7.2 31.3-2.6 1.4-3 1.3-8.5-1.5-9.6-5-14.5-11.8-10.9-15.3.9-1 1.2-7.3 1.2-24.5v-23.2l-5.5-3.7c-3-2-6.5-4-7.8-4.3s-4.1-1.7-6.3-3.1c-4.6-2.9-8.8-3.9-10.8-2.5-.9.6-1.5 3.6-1.8 9.1-.3 4.5-1.1 10-1.9 12.2s-1.4 5.1-1.4 6.5c0 3.7-3.1 12.6-5.1 14.7-3.2 3.5-6.9 2.4-15.8-4.3-4.5-3.5-8.5-7-8.8-7.8s.1-2.8 1-4.6c3.5-7.2 4.7-10.6 4.7-13.4 0-1.6.5-3.4 1-3.9.6-.6 1.3-3.5 1.7-6.5.3-3 .9-5.9 1.3-6.4.9-1.2 2.8-7.4 3.9-12.7 1-4.6-.7-7.7-6.8-12.8-2.3-1.9-6.6-5.6-9.5-8.3-8-7.2-10.1-6.5-14 4.6-1.2 3.5-3.2 8.1-4.4 10.1-1.2 2.1-2.2 4-2.2 4.4 0 1.9-7.4 14.9-9.3 16.4-4.1 3.3-6.9 2.3-13.5-4.6-7.4-7.7-7.8-10.2-2.9-16.7 4.3-5.6 11.3-17.2 12.3-20.1.4-1.3 1.7-4 3-6s2.6-4.9 3-6.5c.4-1.5 1.2-3.5 1.9-4.3 2.4-3 2.4-5-.1-9.6-2.2-4.1-10.5-14.7-16.1-20.7-2.8-2.9-4.8-2-8.7 4.2-2 3.2-3.6 6.3-3.7 6.8 0 .4-2 3.5-4.4 6.8-2.5 3.3-6.6 9.1-9.2 13-5.5 8.1-5.9 8.5-9.4 8.5-2.5 0-5-2-7.3-5.8-.6-1-2.8-4.4-4.8-7.5-2.1-3.1-3.8-6.4-3.8-7.3 0-2.1 4-7.5 9.6-13.2 5.9-5.8 11.4-12.7 11.4-14.1 0-.7 1.8-3.3 3.9-5.9 5.4-6.4 9.3-14 8.5-16.6-.5-1.8-5.9-13.1-8.3-17.6-1.9-3.4-4-8.6-4.3-10.4-.5-3.1-2.4-2.9-5.4.6-1.6 1.8-9.5 9.9-17.5 18-14.8 14.8-18.4 17.3-21.5 14.7-2.1-1.7-6.4-8.5-6.4-10 0-.6-.7-2.6-1.6-4.4-1.4-3.1-1.4-3.6.3-6.8 1-2 4.7-5.7 8.4-8.4 12.8-9.2 29.7-25.1 32.4-30.3 1-1.9 1.5-4.4 1.2-5.9-1.4-6.5-2.7-11-4.7-16.1-1.2-3-2.6-7-3-8.9-.8-3-2.4-5-4.1-5.1-.9 0-8.4 5.2-11.7 8.2-1.7 1.5-5.4 4.3-8.4 6.4-2.9 2-5.4 4.1-5.6 4.6-.2.4-1 .8-1.7.8-.8 0-2 .6-2.8 1.4-2.2 2.3-11.3 7.6-12.9 7.6-3.8 0-8.8-10-8.8-17.7 0-4.1 3.5-8.2 9.4-11.1 2.5-1.3 4.6-2.7 4.6-3.1s1.7-1.6 3.8-2.7c4.5-2.3 19.4-13.2 20.5-15.1.4-.7 1.4-1.3 2.1-1.3s2.3-1.2 3.7-2.6c2.3-2.4 2.4-3.2 2.3-13.7-.3-20.6-.8-26.5-2.5-28.2-1.4-1.4-2.7-.8-14.2 6.9-7 4.6-14.4 9.1-16.4 10.1-2.1 1-5.1 2.7-6.8 4-4.8 3.5-8.5 4.4-12.5 3l-3.5-1.2-.9-10.8c-.8-8.9-.7-11.3.5-13.4 1.6-2.8 8.8-8 15.4-11.2 2.2-1 6.7-3.9 10-6.4s6.9-4.9 8-5.4c1.2-.5 3.2-2.1 4.5-3.5 1.4-1.4 3-2.6 3.5-2.6.6 0 2.8-1.7 4.8-3.8 3.6-3.7 3.7-4 3.7-11.1 0-4-.4-8-.9-8.9s-1.1-6-1.4-11.2-.6-9.6-.6-9.7c-.1-.1-1-.7-2.1-1.3-1.7-.9-2.9-.5-6.9 2.4-9.6 7.1-17.7 12.6-21.6 14.7-2.2 1.1-5.9 3.4-8.3 5-5.2 3.5-9.1 3.7-12 .6-1.9-2-2.2-3.5-2.2-10.5 0-7.6.2-8.3 3-11.6 1.7-1.8 4.7-4.2 6.8-5.1 2-1 5.1-2.8 6.9-4.1 1.7-1.3 3.6-2.4 4.1-2.4 1.8 0 29.2-18.7 31.3-21.4s2.1-5.2-.5-31.6c-.2-1.9-.4-4.5-.5-5.8-.2-3.8-2.8-3.6-9.1.7-3.3 2.3-6.3 4.1-6.6 4.1s-2.3 1.3-4.4 3c-2.1 1.6-4.2 3-4.6 3-.5 0-2.9 1.4-5.4 3s-5.1 3-5.9 3-2.2.6-3 1.4c-2.5 2.3-8.3 2.9-10.6 1.2-1.7-1.2-2-2.6-2-8.8 0-8.4 1-10 8.6-14.3 2.4-1.3 6.9-3.8 9.9-5.5 11.9-6.6 14.1-7.9 20.7-12.3 3.7-2.5 8.6-6.4 10.8-8.7l4-4.1-.3-7.7c-.1-4.2-.7-8.9-1.3-10.5-.7-1.5-.9-5-.7-7.8.6-6-.9-11.9-3-11.9-.7 0-2.8 1-4.5 2.2-1.7 1.3-3.9 2.7-4.9 3.3-15.2 8.9-18.7 11-21 12.6-1.5 1.1-3.1 1.9-3.6 1.9s-2.9.9-5.4 2c-8.5 3.7-10.3 1.1-9.7-14 .5-9.7.7-9.9 14.4-17 11.5-5.9 16.1-8.5 22.6-12.6 10.1-6.3 12.8-8.4 14.9-11.3 1.9-2.8 2.1-3.9 1.6-12.4-.3-5-.8-12.7-1-17-.3-4.3-.7-8.5-1-9.3-.7-1.9-5-1.8-6.6.1-.7.8-1.6 1.5-2 1.5-.5 0-3.2 1.6-6.2 3.5-2.9 2-8 4.9-11.3 6.6-3.3 1.6-8.9 4.5-12.5 6.4s-7.5 3.4-8.7 3.5c-3.1 0-6.3-7.5-6.3-14.6 0-4.7.4-5.9 3.3-8.9 1.7-1.9 5.5-4.6 8.2-6.1 2.8-1.5 8.6-4.6 13-6.9 9.3-4.9 25.1-15.3 27.9-18.4 2.1-2.3 2.1-3.2 1.1-26.6-.4-9-.8-11.3-2.4-12.9-1.9-1.9-2.1-1.8-13 4.8-6.1 3.6-11.3 6.6-11.5 6.6-.3 0-2.5 1.3-4.9 3-2.5 1.6-5.1 3-5.8 3-.8 0-2.7.9-4.4 2-7.1 4.7-12 1-12-8.9q0-5.55 1.8-8.1c1.5-2.2 7.1-5.9 13.7-9.2 4.2-2.1 17.3-10 20.6-12.5 1.7-1.3 3.4-2.3 3.9-2.3.4 0 2.9-1.7 5.4-3.8 8.8-7.2 8.3-6 8.3-20.3-.1-7.1-.6-13.7-1.2-14.8-.5-1.1-1-3.8-1-6s-.4-4.3-1-4.6c-1.1-.7-6.1 1.8-10.6 5.1-1.7 1.3-3.5 2.4-4.1 2.4-.5 0-2.5 1.2-4.4 2.6-3.8 2.8-23.2 12.4-25.2 12.4q-5.4-.15-8.4-15c-1.1-5.7 5.8-14.5 14.7-18.7 1.4-.7 4.6-2.5 7.2-4s10-5.9 16.5-9.6 13.1-7.9 14.6-9.2l2.8-2.5v-13.9c0-8-.4-14.8-1-16-.6-1.1-1.1-3.3-1.1-5 0-1.6-.5-3.3-1-3.6-.6-.4-10.6 4.1-22.3 9.9s-22.5 10.6-24 10.6c-5.1 0-6.7-2.9-6.7-12.7v-8.6l3.9-3.6c4.1-3.8 7.6-6 17.1-10.7 3-1.4 5.7-3 6-3.4s2.3-1.7 4.5-2.9 4.7-2.5 5.5-3.1c.8-.5 4.7-2.7 8.7-5 6.1-3.5 7.4-4.8 9.1-8.9 1.8-4 1.9-5.3 1-8.6-.6-2.2-1.4-9.2-1.7-15.5-.6-11-.7-11.5-2.9-11.8-1.2-.2-4.2.6-6.5 1.7-2.4 1.2-4.7 2.1-5.2 2.1-.4 0-3 1.3-5.7 3-2.6 1.6-5.3 3-5.8 3s-2.9 1.3-5.3 3c-2.5 1.6-5 3-5.6 3s-2.9.9-5.1 2.1c-5.4 2.8-10.6 2-12.1-1.9-.6-1.4-.9-7.9-.8-14.4.2-12.6-.5-14.8-4.6-14.8-1.2 0-2.5.3-2.8.7"></path><path fill="#004C82" d="M268.8 122.8c-3.6.9-7 2-7.4 2.4-.4.5-1.5.8-2.5.8s-6 2.1-11.1 4.7c-13.2 6.8-27.4 21.3-33.3 34-1.1 2.4-2.3 4.3-2.7 4.3-.3 0-.9 1.5-1.3 3.2-.3 1.8-1.2 4.6-2 6.3-3.2 7.2-4 12.4-4 26 0 14.1.6 17.4 4.7 28 4.5 11.6 9.4 19.9 15.7 26.6 3.8 4.1 2.2.3-1.9-4.4-4.9-5.5-5.3-9.7-1.5-15.7 1.4-2.1 2.9-5.9 3.4-8.2 1.9-8.5 4.4-12.7 9.5-16.2 1.7-1.2 1.5-1.5-3-3.7-3-1.4-5.5-3.6-6.5-5.4-.8-1.7-2.5-4.6-3.7-6.5-1.6-2.5-2.2-5.1-2.2-9.2 0-6.8-1.4-8.2-3.4-3.5-1.7 4.3-3.2 5.3-5.3 3.6-1.9-1.7-1.2-10.3 1.2-12.9.8-.9 1.5-2.4 1.5-3.3 0-2.2 3.1-8.7 4.2-8.7.5 0 1.8-2 3-4.5 1.9-3.9 2.6-4.5 4.8-4.3 2.5.3 2.8 1.2 1.4 5.5-.5 1.9-.2 2.3 1.4 2.3 1.4 0 2.1-.9 2.5-2.9 1.1-5.2 7.2-8.2 19.9-9.8 5.1-.6 10.3.9 11.2 3.3.3.8 1.1 1.4 1.7 1.4 1.6 0 3.8 3.1 3.9 5.2 0 .9 1.4 3.8 3.1 6.3 5.1 7.6 5 11.1-.7 22.3-3 5.8-6.8 11.4-9.7 14.3l-4.7 4.8 3.6.7c2.9.5 5.3 2.6 13.4 11.6 5.8 6.4 10.1 12.2 10.5 13.9 1.1 4.7 2.6 4.7 5.7-.3 1.7-2.6 14.2-10.5 22.5-14.2 4-1.8 7.7-1.8 13.1-.1 3.7 1.2 2.5-1.3-1.6-3.4s-7.2-7.8-7.2-13.2c0-1.4-.7-4.8-1.5-7.5-1.9-6.4-1.9-15.4 0-18 2.5-3.3 1.8-5-1-2.4-2.4 2.2-2.8 2.3-15.4 1.7-10.3-.4-13.7-1-17-2.6-2.2-1.2-4.1-2.7-4.1-3.5 0-.7-1.3-3-3-5.1-1.6-2.1-3-4.3-3-5s-1.3-2.9-3-5c-3.3-4.2-3.7-7.2-1.6-11.4 1.5-2.8 9.9-11.1 11.3-11.1.5 0 3-1.8 5.7-4 4.6-3.8 5.2-4 12-4.1 3.9-.1 8.5-.5 10.1-.9 3-.7 3-.7.5-1.3-11.4-2.8-27.3-3.2-36.2-.9M1212 121.9c-.8.5-4 1.1-7 1.5-10 1.2-21.8 6-32.9 13.6-7.5 5.1-19.2 17.6-22 23.4-1.3 2.5-2.7 4.8-3.2 5.2-1.2.7-1.2 4.4 0 4.4.5 0 2-2.1 3.3-4.6 1.3-2.6 3.3-5.3 4.5-6.1 1.1-.8 2.4-2.5 2.7-3.9.9-3.6 4-2.8 4.4 1.2.2 1.9-.4 3.8-1.8 5.3-2.2 2.6-2.8 8.5-.8 7.9.7-.3 1.5-1.8 1.9-3.5 1.1-5.4 8.6-12.9 13.6-13.6 2.1-.3 5.9-.9 8.5-1.2 5.7-.9 13.8 1.2 13.8 3.5 0 1.9 2.8 6 4.1 6 1.5 0 1.1-1.5-1.6-5.4-1.4-2-2.5-4.8-2.5-6.1 0-3.4 8.9-12.7 17.8-18.6 6.8-4.4 8-4.9 13.6-5 3.3-.1 7.5-.5 9.1-.9l3-.7-4-.7c-2.2-.4-5-1.1-6.3-1.7-2.8-1.1-16.1-1.1-18.2 0M310 126.8c0 .5 1.4 1.8 3 3 3.4 2.6 3.7 3.8 1.4 6.3-1.6 1.7-1.4 2.1 1.9 5.8 4.9 5.5 8.7 13.2 8.7 17.9 0 2.9-.7 4.5-3 6.7-4.7 4.5-3.5 5.2 1.6 1 4.4-3.6 4.8-3.7 10.6-3.2 3.3.3 6.7 1.2 7.6 2s3.5 2.4 5.8 3.5c5.9 3 9.3 8 10.5 15.5.6 3.4 1.7 8.5 2.5 11.3 2.3 8.3 1.9 14.5-1.3 18.6-4.3 5.3-9.6 9.6-14.8 11.9-4.5 2-4.6 2.1-2.9 4 1.5 1.6 1.7 4 1.7 17.4 0 8.5.3 15.5.8 15.5s1.6-1.2 2.6-2.8c1-1.5 2.6-3.6 3.7-4.7 5.5-5.9 14-22.7 15.6-31 .5-2.2 1.5-6.7 2.4-10 1.9-7.6 2-16.2 0-24.5-.8-3.6-1.9-8.4-2.4-10.7-.9-4.2-1.2-4.9-4.4-11.3-7.4-14.4-10-18-20.7-27.5-3.6-3.2-12.6-9.5-13.6-9.5-.3 0-3.5-1.4-7-3-6.2-2.9-10.3-3.8-10.3-2.2M1242 126.7c0 .5 1.4 2 3.2 3.5 2.9 2.4 3.2 2.9 2.1 4.7-1.7 2.7-1.9 2 2.7 7 2.2 2.3 4 4.7 4 5.3 0 .5 1.1 2.4 2.5 4.3 1.4 1.8 2.9 5.2 3.3 7.6l.8 4.4 6 .7c4.3.4 7.9 1.7 12.5 4.4 8.4 4.9 9.7 6 10.5 9.8.3 1.7 1.2 3.8 1.9 4.6 1.8 2.2 2.5 5.4 3.5 16.4.8 8.8.7 10.2-1 13.5-2.2 4.3-9.3 11.3-13.7 13.5-3.1 1.5-3.3 1.5-6.9-.9-2.3-1.6-5-2.5-7.3-2.4h-3.6l5.5 2.7c6.8 3.4 10.7 9.3 9 13.8-.6 1.5-.9 7.6-.8 13.6l.3 10.8 4.5-4.8c6.9-7.2 18-27.3 18-32.6 0-.9.7-2.7 1.5-3.9 1.9-2.9 2.9-21.2 1.7-29.7-1.2-7.9-5-18.9-10-29-2.8-5.8-5.9-9.8-13.7-17.7-5.6-5.6-11.2-10.7-12.5-11.2-1.4-.6-3.2-1.5-4-2.1-6.5-4.3-20-8.5-20-6.3M1143.4 173.7c-.4 1.6-1 3.2-1.4 3.8-.9 1.1-2.6 8.8-4.1 19.1-1.5 9.9.6 28 4.2 36.3 5.1 12 9.9 19.1 9.9 14.7 0-.9 1.1-3.9 2.4-6.8s3.2-8 4.2-11.3c2.6-8.9 5.4-13.3 8.7-14.1 3.7-.8 3-2.3-1.7-3.9-5-1.7-4.7-1.4-10.4-12.4-4.1-8.2-5.3-9.6-8.2-10.6-4.2-1.4-4.6-2.9-2.6-9.9 1.9-6.3 2-7.6.6-7.6-.5 0-1.3 1.2-1.6 2.7M1209.5 177.6c-.9 3.1-6.7 14.4-11.2 22-2.4 3.9-4.3 7.4-4.3 7.7s2.6 3 5.8 6.1c3.1 3 8.2 8.7 11.2 12.5 6.3 8.1 8 8.6 14.3 4.2 6.2-4.2 10.5-6.7 17.3-10 6.6-3.2 8-5.1 6.3-8.3-1.1-2.1-2.3-8.3-3.9-20.3s-1.2-11.5-7.8-11.5c-5.3 0-19.9-2.1-24.9-3.6-1.7-.5-2.4-.2-2.8 1.2M278.4 262.8c-2.3 4-2.4 4-21.1 9.8-5.1 1.6-9.3 3.3-9.3 3.7 0 1 6.5 3.8 16 6.8 6.6 2.1 9.4 2.4 23.7 2.4 10 0 16.6-.4 17.3-1.1s-2.3-3.2-9.8-8.2c-12.4-8.1-13.3-9-14.1-13.7l-.6-3.5zM1209.5 265.8c-1.2 1-7.8 3.4-16 5.7-3.3.9-7.3 2.2-8.8 2.7-2 .8-3.5.7-5.4-.1-1.4-.6-2.8-1-3-.7-1 .9.8 2.6 2.8 2.6 1 0 1.9.4 1.9.9 0 1.3 17.7 6.9 26.1 8.2 7.9 1.2 29.6.6 31.1-.9 1-1-2.2-3.4-11.2-8.7-1.9-1.1-5.5-3.9-8-6.3-4.5-4-7.5-5.1-9.5-3.4M879.9 381.2c-1.9.7-1.9 5.8-1.9 397.7 0 275.5.3 397.2 1 397.6.6.4 3-.2 5.3-1.3 2.3-1 8.3-3.6 13.2-5.6 15.3-6.4 28.2-13 36.7-18.8 1.5-1 3.3-1.8 4.1-1.8.7 0 3.1-1.3 5.3-3 2.1-1.6 4.3-3 4.8-3s2.6-1.5 4.6-3.3c7-5.9 14.1-11.1 16.8-12.3 4-1.6 15.4-11.1 27.1-22.3 4-3.9 7.7-7.1 8.2-7.1.4 0 3.3-3 6.3-6.8 3-3.7 6.8-7.7 8.5-9 1.7-1.2 3.1-2.9 3.1-3.6 0-.8 1.6-2.6 3.5-4 4-3.1 13.4-14.5 15.9-19.3.9-1.8 3.7-5.5 6.1-8.3 2.5-2.8 4.5-5.6 4.5-6.4 0-.7 1.1-2.3 2.4-3.5 1.3-1.3 3.9-5.3 5.6-8.9 1.8-3.7 4.3-8.1 5.6-9.9 1.3-1.7 2.4-3.6 2.4-4.1s1-2.2 2.2-3.8c2.9-3.7 8.8-15.3 8.8-17.4 0-.9 1.1-3.1 2.5-5s2.5-4.1 2.5-4.9c0-.9 1.6-4.8 3.5-8.6 1.9-3.9 3.5-7.7 3.5-8.5s1.1-3.7 2.5-6.3c1.3-2.7 2.7-6.8 3.1-9.3.3-2.4 1.5-6.1 2.5-8.1 1.1-2.1 1.9-4.4 1.9-5.2s.4-2.8.9-4.5c1.8-5.7 6-26 7.1-34.6.7-4.7 1.6-10.3 2.1-12.5s1.2-8.3 1.5-13.5c.4-5.2.8-116.8 1-248 .3-211.8.2-238.7-1.2-240.5-1.5-2-3-2-116.5-2.5-63.3-.3-115.9-.2-117 .2M396.2 382.6l-2.2 1.5v239.8c0 131.9.3 240.1.7 240.4.3.4.7 5.2.9 10.7.1 5.5.7 11.3 1.3 12.8s1.5 6.5 2 11.2 1.2 9.8 1.6 11.5c2 10 2.9 13.7 3.7 14.1.4.3.8 1.6.8 3 0 2.6 3.7 15.1 5 16.9.4.5 1 3 1.4 5.5s1.7 6.7 3 9.5c1.3 2.7 2.6 6.6 3 8.5.7 4 1.4 5.5 14.7 32.5 5.4 11 11.1 21.8 12.8 24 1.6 2.2 4.6 6.8 6.5 10.1 2 3.4 5.2 8.1 7.1 10.4s3.5 4.6 3.5 5 1.6 2.8 3.5 5.2c1.9 2.3 3.9 4.7 4.3 5.3 17 22.4 52.9 57 71.6 69 3 1.9 5.8 3.9 6.1 4.5.6 1 10 7.3 14.5 9.8 1.4.7 3.4 2.2 4.6 3.3 1.1 1 2.7 1.9 3.6 1.9.8 0 3.2 1.3 5.3 3s4.4 3 5.2 3 2.9 1.1 4.6 2.4c1.8 1.3 4.5 2.6 6.1 3s4.3 1.8 6.1 3.2c1.7 1.3 3.9 2.4 4.8 2.4 1.4 0 6.1 2 11.9 5.1 1 .5 4.6 1.8 8 3 3.5 1.2 6.7 2.5 7.3 3 .5.5 1.9.9 3.2.9h2.3l-.2-398.3-.3-398.2-118-.3c-105.6-.2-118.3 0-120.3 1.4"></path></svg>
