<svg color="#a3a3a3" xmlns="http://www.w3.org/2000/svg" viewBox="185 -5 342 370"><path fill="#01b223" d="M272 333c-.825-.541-4.41-2.87-7.98-5.18-14.2-9.23-30.3-24.1-40.4-37.3-17-22.2-27.4-46.6-32-74.6-1.84-11.2-1.84-34.8.008-46.9 5.35-35 21.7-66.7 46.9-91.4 11.3-11 25-21.5 27.5-21 1.08.208 2.19 3.12 5.26 13.8 2.71 9.39 3.69 13.9 3.22 14.8-.37.711-2.94 3.11-5.72 5.34-2.78 2.22-8.25 7.38-12.2 11.5-25.5 26.5-38.6 62.8-36 99.4 1.91 26.5 11.1 50.6 27.4 71.5 6.74 8.67 20.6 21.7 29 27.4 6.15 4.11 7.29 5.19 7.31 6.88.026 2.05-7.81 24.2-9.17 25.9-.906 1.14-1.27 1.13-3.18-.125zm159-11.4c-2.52-6.84-4.59-13.3-4.59-14.4 0-1.56.752-2.48 3.37-4.13 26.6-16.8 47.9-46 56.2-76.9 3.53-13.2 4.39-21.4 3.97-37.9-.422-16.7-1.33-22.1-6.2-37.2-7.56-23.4-24.2-46.7-45.4-63.4-1.05-.825-2.15-1.9-2.45-2.39-.298-.49.94-6.06 2.75-12.4 1.81-6.32 3.5-12.3 3.76-13.4.952-3.84 1.57-4.14 4.72-2.28 6.56 3.87 19 14.5 28.7 24.4 47.3 48.8 58.5 121 28.1 182-10.9 21.8-29.3 43.6-49.8 58.8-4.73 3.52-17.2 11.4-18 11.4-.3 0-2.61-5.6-5.14-12.4z"></path><path fill="#414141" d="M295 358c-.722-.205-1.31-.507-1.31-.673 0-.165.973-2.76 2.16-5.76 1.19-3 3.59-9.51 5.33-14.5s3.51-9.42 3.93-9.94c.595-.733 11.7-.935 51.1-.926 27.7.006 50.7.259 51.2.562.47.303 2.43 4.94 4.35 10.3s4.38 12 5.45 14.8c1.08 2.79 1.7 5.32 1.4 5.62-.611.612-121 1.05-124 .445zm15-46.4c-.215-.215.574-3.64 1.76-7.61 4.76-16 9.53-44.3 11.2-66.3 1.29-17.2.494-55.4-1.48-70.8-.847-6.6-1.54-12.5-1.53-13.1.04-6.38 9.17 33.1 15.5 67.1l.56 3 5.15.224c5.04.219 5.14.188 4.73-1.5-.234-.948-.991-4.76-1.68-8.47-.691-3.71-3.08-15-5.31-25.1-13.9-62.9-35.3-126-56.3-165-3.14-5.85-3.26-6.31-2.1-7.6.683-.755 3.27-2.28 5.74-3.39 6.34-2.85 24.1-8.07 24.8-7.31.347.347 1.11 3.31 1.71 6.58 2.38 13.2 4.35 23 10.5 52.5 6.13 29.6 26 127 30.1 147 1.07 5.36 2.13 10.3 2.34 11.1.321 1.07 1.27 1.31 5.22 1.31 2.65 0 4.82-.294 4.82-.652s-3.55-18.2-7.89-39.6-10.8-53.1-14.3-70.4-8.07-40.1-10.1-50.6-4.93-24.7-6.38-31.5c-4.89-23-5.8-27.8-5.32-28.3.77-.77 12.9-2.39 21.9-2.94l8.33-.504.502 20.9c.572 23.8.703 26.6 2.75 58.3 2.54 39.5 5.66 66.7 11.7 102 2.99 17.5 8.32 42 9.34 43.1.375.378 2.69.614 5.14.526 5.15-.186 4.7-.98 6.13 10.8 2.32 19.1 9.59 55 14.2 70.1.819 2.68 1.49 5.3 1.49 5.81.005.74-9.77.938-46.4.938-25.5 0-46.6-.176-46.8-.392zm73.4-97.1c-3.12-13.1-7.35-36.1-9.79-53.2-7.05-49.4-9.96-85.6-10.7-133L362.461 0l2.18.027c3.7.045 16.1 1.27 22.7 2.24l6.26.923-.324 3.09c-.178 1.7-1.38 9-2.66 16.2-9.97 56-12.4 124-6.46 182 1.43 14.1 1.17 17.6-.717 9.66zm5.92-47.6c-1.34-23.2 1.02-79.5 4.54-108 1.72-14.1 5.46-38.2 7.07-45.4.367-1.65.861-3.93 1.1-5.06.584-2.79 1.98-2.69 12.9.85 11.1 3.59 18.3 7.11 18.3 8.92 0 .721-1.54 4.85-3.43 9.18-17.9 41-34 99-37.9 136-1.54 14.8-1.9 15.3-2.57 3.75z"></path></svg>
