<svg role="img" xmlns="http://www.w3.org/2000/svg" viewBox="0 0 24 24" fill="rgb(22, 163, 74)"><path d="M5.9537 14.0007c.8315 0 1.5058.6743 1.5058 1.5058s-.6744 1.5058-1.5058 1.5058-1.5058-.6744-1.5058-1.5058.6743-1.5058 1.5058-1.5058"></path><path d="M9.9663 11.8513c.8314 0 1.5057.6735 1.5058 1.5049 0 .8315-.6743 1.5058-1.5058 1.5058-.8314-.0001-1.5049-.6744-1.5049-1.5058.0002-.8314.6736-1.5048 1.5049-1.5049"></path><path d="M6.1431 8.5086c.8315 0 1.5059.6744 1.5059 1.5058-.0002.8314-.6745 1.5049-1.5059 1.5049s-1.5056-.6735-1.5058-1.5049c0-.8314.6744-1.5058 1.5058-1.5058"></path><path d="M13.0307 8.5086c.8315 0 1.5058.6744 1.5058 1.5058-.0001.8314-.6744 1.5049-1.5058 1.5049-.8312-.0002-1.5047-.6736-1.5049-1.5049 0-.8313.6736-1.5056 1.5049-1.5058"></path><path d="M9.7398 4.956c.8313 0 1.5057.6735 1.5058 1.5048 0 .8314-.6745 1.5057-1.5058 1.5058-.8315 0-1.5059-.6743-1.5059-1.5058.0001-.8314.6744-1.5049 1.5059-1.5049"></path><path d="M14.7523 4.3163c.8314.0001 1.5059.6744 1.5059 1.5058-.0001.8314-.6745 1.5058-1.5059 1.5059s-1.5058-.6744-1.5058-1.5059.6744-1.5058 1.5058-1.5058"></path><path fill-rule="evenodd" d="M11.9995 0a11.9998 11.9998 0 0 1 9.7791 18.9547 12 12 0 0 1-5.8407 4.3808 12 12 0 0 1-7.2987.1845 12 12 0 0 1-5.7587-3.7196l-.2773-.3369a12.001 12.001 0 0 1-1.413-12.6736 12 12 0 0 1 4.4207-4.9472A12 12 0 0 1 11.9848 0zm-.0147 1.998a10 10 0 0 0-5.5311 1.6767 10 10 0 0 0-3.6796 4.456 10.001 10.001 0 0 0 2.081 10.8679c.6405.5295 1.9308 1.4402 3.1308 1.2002 1.699-.3407.1994-2.7898 2.0097-3.6103 1.809-.8205 2.3293 1.1096 3.5488.1797 1.2194-.93-.4104-2.3606.8495-3.9296 1.0605-1.3304 2.6997-.3215 3.4707-1.2304.7705-.9091-1.3798-2.4407-.6299-3.8505.7499-1.4094 2.0994-.4606 2.2197-1.7588.051-.6-.6492-1.3205-1.2402-1.8095l.0195.0136a9.9 9.9 0 0 0-6.2342-2.205z" clip-rule="evenodd"></path></svg>
