<svg role="img" xmlns="http://www.w3.org/2000/svg" fill="none" viewBox="0 0 1463 1358"><g fill="#ff4c45"><path d="M387.5 35.2c-13.1 18.9-26.9 38.8-30.7 44.3-15.1 21.9-24.3 35.3-44.3 64-11.4 16.5-25.3 36.5-30.8 44.5s-12.9 18.5-16.3 23.5c-3.5 4.9-9.2 13.3-12.8 18.5s-8.4 12.2-10.7 15.5c-13.1 18.9-31.8 45.8-43.7 63-3.7 5.5-14.6 21.2-24.2 35-9.5 13.7-23.3 33.5-30.5 44-7.2 10.4-15.2 21.9-17.6 25.5-2.5 3.6-9.1 13-14.6 21-11.2 16.3-24 34.8-31.8 46-48.6 70-52.2 75.6-59.5 91.5-4.5 9.8-5.9 12.9-7 16-.4 1.1-1.3 3.3-1.9 4.8-1.9 4.7-5.9 19.8-7.7 29.2-2.5 12.8-2.5 46.3 0 59.5 5.2 26.9 18.3 54.3 40.6 84.5 6.4 8.7 72.5 93.2 91.7 117.3 4.1 5.1 7.8 9.2 8.1 9 .4-.2 6.3-3.2 13.2-6.7 46.8-23.8 121.8-62 150-76.3 18.4-9.4 40.3-20.5 48.5-24.8 8.3-4.2 32.1-16.4 53-27s43.9-22.3 51-26c7.2-3.7 31.9-16.3 55-28.1 76.7-38.9 90-45.8 90.3-46.8.3-.8-43.9-1.1-146.8-1.1-130.5 0-147.1-.2-146.8-1.5.3-1.4 29.3-42.9 122.3-175 18.2-25.9 53.5-76 78.4-111.5 25-35.5 48.4-68.8 52.1-74s11.1-15.8 16.5-23.5 14.1-20.1 19.4-27.5c5.2-7.4 12.5-17.8 16.1-23 3.7-5.2 10.5-14.9 15.2-21.5 4.6-6.6 17.5-24.8 28.5-40.5 59.4-84.6 97.3-138.5 103-146.3 3.4-4.8 6.3-9 6.3-9.2 0-.3-80.5-.5-178.9-.5H411.2zM1063.1 7.2c-4.4 6.6-12.8 18.6-29.6 42.3-5.5 7.7-12.7 18-16.2 23-7.3 10.6-18 25.8-36.5 51.9-7.3 10.3-16.2 23-19.8 28.2s-11 15.8-16.6 23.6c-5.5 7.9-16.1 22.8-23.4 33.3-7.4 10.4-20.4 28.9-28.9 41s-19.2 27.4-23.9 34c-4.6 6.6-11.6 16.6-15.5 22.2-4 5.6-11.9 16.9-17.6 25S821.7 350.8 818 356c-8.6 12.3-23.1 33-35.1 50-10.5 14.8-20.7 29.3-45.8 65-9.1 12.9-23.5 33.4-32 45.5s-25.6 36.4-37.9 54c-12.4 17.6-24.9 35.4-27.8 39.5s-8.1 11.5-11.5 16.5c-3.5 4.9-9.2 13-12.7 18-3.6 4.9-8.4 11.7-10.7 15-14.2 20.4-43.3 62-63.5 90.5-6.4 9.1-20.7 29.3-31.7 45s-24.4 34.8-29.8 42.5c-5.5 7.7-12.9 18.3-16.5 23.5-3.7 5.2-23.3 33.2-43.7 62.2-46.9 66.7-54.5 79.6-64.2 108.5-8.1 24.2-9.5 32.4-9.5 55.3 0 22.6 1.6 32.5 8.8 54.4 8.6 25.8 20.9 47.5 43.1 75.6 2.9 3.6 11.7 14.8 19.6 25 8 10.2 26.2 33.3 40.4 51.5 14.2 18.1 30.4 38.8 35.9 45.9 14.4 18.5 15.1 19.2 16.7 18 .8-.6 21.7-11.4 46.4-23.9 24.8-12.5 58.1-29.4 74-37.5 67.1-34.1 90.3-45.9 113-57.5 13.2-6.7 42-21.4 64-32.5s51.7-26.2 66-33.5c72-36.7 102.9-52.4 133-67.6 18.1-9.2 33.1-17.2 33.3-17.8.3-.8-46.9-1.1-169.7-1.1-129.3 0-170.1-.3-170.1-1.2 0-.6.6-1.9 1.4-2.7.7-.9 6.7-9.3 13.3-18.6 6.6-9.4 22.5-32.1 35.5-50.5 12.9-18.4 29.1-41.4 35.8-51 6.8-9.6 19.6-27.9 28.5-40.5 8.9-12.7 23.2-32.9 31.7-45 39.8-56.6 68.5-97.3 89.7-127.5 26.2-37.3 34.1-48.6 44.4-63.3 5.3-7.5 13.9-19.7 19-27 5.1-7.2 13.8-19.5 19.2-27.2s15.5-22.1 22.5-32 34.2-48.6 60.5-86 50.8-72.3 54.5-77.5c3.6-5.2 11-15.8 16.5-23.5 15.3-21.7 38.1-54.2 60.5-86 11.2-16 25.6-36.4 32-45.5 12-17 17.1-24.2 54.5-77.5 12-17.1 24.8-35.3 28.5-40.5 7.1-10 85.8-121.9 91.8-130.5 1.9-2.8 7.5-10.7 12.3-17.6C1457 8 1461 2 1461 1.6c0-.3-88.6-.6-196.8-.6h-196.8z"></path></g></svg>
